<svg class="logo" viewBox="0 0 342 207.9">
  <linearGradient id="gradient" gradientTransform="rotate(90)">
    <stop offset="5%" stop-color="#F09821" />
    <stop offset="95%" stop-color="#F05437" />
  </linearGradient>
  <path class="logo-o_glyph" fill="url(#gradient)" d="M141.2,149.8c0-7.9,1.5-15.4,4.6-22.5c3.1-7,7.3-13.2,12.5-18.4c5.3-5.2,11.5-9.3,18.6-12.4
  c7.1-3.1,14.8-4.6,23.1-4.6c8.3,0,16,1.5,23.1,4.6c7.1,3.1,13.3,7.2,18.5,12.4c5.2,5.2,9.2,11.3,12.1,18.4c2.9,7,4.4,14.5,4.4,22.5
  c0,7.9-1.5,15.4-4.4,22.5c-2.9,7-7,13.2-12.1,18.5c-5.2,5.3-11.4,9.5-18.5,12.5c-7.1,3.1-14.9,4.6-23.4,4.6
  c-8.1,0-15.7-1.4-22.8-4.2c-7.1-2.8-13.3-6.8-18.6-11.9c-5.3-5.1-9.5-11.2-12.5-18.4C142.8,166.3,141.2,158.4,141.2,149.8z"/>
  <path fill="#444545" d="M94.5,0v103.8c-3.8-2.8-7.9-5.2-12.5-7.2c-7.1-3.1-14.8-4.6-23.1-4.6c-8.3,0-16,1.5-23.1,4.6
  c-7.1,3.1-13.3,7.2-18.6,12.4c-5.3,5.2-9.5,11.3-12.5,18.4c-3.1,7-4.6,14.5-4.6,22.5c0,8.6,1.5,16.5,4.6,23.6
  c3.1,7.1,7.3,13.3,12.5,18.4c5.3,5.1,11.5,9.1,18.6,11.9c7.1,2.8,14.7,4.2,22.8,4.2c8.5,0,16.2-1.5,23.4-4.6c4.6-2,8.7-4.4,12.5-7.3
  v9.2h22.7V0H94.5z M91.4,163.9c-1.9,4.3-4.5,8.1-7.8,11.4c-3.3,3.3-7.1,5.8-11.5,7.7c-4.4,1.8-9.1,2.8-14,2.8
  c-4.9,0-9.6-0.9-13.9-2.8c-4.3-1.8-8.1-4.4-11.4-7.7c-3.3-3.3-5.8-7-7.7-11.4c-1.8-4.3-2.8-8.9-2.8-13.9c0-4.9,0.9-9.6,2.8-14
  c1.8-4.4,4.4-8.2,7.7-11.5c3.3-3.3,7-5.8,11.4-7.7c4.3-1.8,8.9-2.8,13.9-2.8c4.9,0,9.6,0.9,14,2.8c4.4,1.8,8.2,4.4,11.5,7.7
  c3.3,3.3,5.9,7.1,7.8,11.5c1.9,4.4,2.9,9.1,2.9,14C94.3,155,93.3,159.6,91.4,163.9z"/>
  <polygon fill="#444545" points="312.4,95.1 312.4,46.2 290,46.2 290,95.1 270.2,95.1 270.2,115.2 290,115.2 290,205.2 312.4,205.2
  312.4,115.2 342,115.2 342,95.1 "/>
</svg>
