<svg class="dot_mark" viewBox="0 0 116.8 115.7">
  <linearGradient id="a" gradientUnits="userSpaceOnUse" x1="58.38" y1="115.709" x2="58.38">
    <stop offset="0" stop-color="#f05437"/>
    <stop offset="1" stop-color="#f09821"/>
  </linearGradient>
  <path fill="url(#a)" d="M0 57.7c0-7.9 1.5-15.4 4.6-22.4 3.1-7 7.2-13.1 12.5-18.3 5.3-5.2 11.5-9.3 18.6-12.4C42.8 1.5 50.5 0 58.8 0c8.2 0 15.9 1.5 23 4.6C89 7.7 95.1 11.8 100.3 17c5.2 5.2 9.2 11.3 12.1 18.3 2.9 7 4.4 14.5 4.4 22.4 0 7.9-1.4 15.4-4.4 22.4-2.9 7-6.9 13.2-12.1 18.5-5.2 5.3-11.3 9.4-18.5 12.5-7.1 3.1-14.9 4.6-23.3 4.6-8.1 0-15.7-1.4-22.8-4.2-7.1-2.8-13.3-6.8-18.6-11.9-5.3-5.1-9.4-11.2-12.5-18.3C1.5 74.2 0 66.3 0 57.7z"/>
</svg>
